<svg width="46" height="26" viewBox="0 0 46 26" fill="none" xmlns="http://www.w3.org/2000/svg">
<path fill-rule="evenodd" clip-rule="evenodd" d="M29.8373 0.10291L29.729 0.205856L29.7384 12.5306L29.7478 24.8554L29.832 24.9355L29.9163 25.0156L32.2452 25.0251C34.8059 25.0356 34.7317 25.0414 34.8503 24.8233C34.9001 24.7317 34.9064 23.3503 34.9064 12.4629V0.205539L34.7983 0.10277L34.6902 0H32.3178H29.9455L29.8373 0.10291ZM36.3493 4.33453C36.2988 4.35882 36.2367 4.41793 36.2111 4.46588C36.1743 4.53508 36.1647 6.27889 36.1646 12.9209L36.1645 21.2887L36.2746 21.7282C36.3351 21.9699 36.3848 22.1927 36.3851 22.2233C36.3856 22.2892 36.5734 22.8454 36.663 23.0467C36.845 23.4553 37.416 24.1156 37.9221 24.5027C38.2303 24.7384 38.9403 25.0832 39.3993 25.2199C40.0175 25.404 40.553 25.5256 40.749 25.5264C40.8609 25.5268 41.0938 25.558 41.2667 25.5957C41.5342 25.654 41.7215 25.6642 42.524 25.6642C43.3265 25.6642 43.5138 25.654 43.7813 25.5957C43.9541 25.558 44.2204 25.5268 44.3729 25.5263C44.6676 25.5253 45.4737 25.3367 45.7496 25.2042C46.0058 25.0811 46 25.1277 46 23.2089C46 22.2156 45.9852 21.4498 45.9651 21.3995C45.9172 21.2797 45.8144 21.2578 45.5849 21.3188C44.8966 21.5018 44.773 21.5172 43.9906 21.5172C43.2774 21.5172 43.2114 21.5116 42.9234 21.4265C42.2752 21.235 41.7023 20.7246 41.5849 20.2339C41.571 20.1759 41.5268 20.0251 41.4866 19.8988C41.4157 19.6763 41.4138 19.5701 41.4233 16.4279L41.4331 13.1865L41.5173 13.1065L41.6015 13.0264L43.3417 13.0088L45.082 12.9912L45.1712 12.8926L45.2604 12.7939L45.2599 11.0819C45.2595 9.78409 45.2481 9.34857 45.2131 9.28195C45.1877 9.2336 45.1089 9.16631 45.038 9.13238C44.9218 9.07672 44.8204 9.07272 44.0031 9.09156C42.8456 9.11821 42.8701 9.11832 42.1829 9.08316C41.6493 9.05588 41.5944 9.04684 41.5172 8.97336L41.4331 8.8933L41.4146 6.67618L41.3961 4.45906L41.2924 4.37422L41.1886 4.28938L38.8148 4.28991C36.985 4.2903 36.42 4.30053 36.3493 4.33453ZM17.8776 8.75362C17.5929 8.80991 17.2914 8.85688 17.2076 8.858C17.1238 8.85913 16.9511 8.89168 16.8238 8.93036C16.6964 8.96903 16.5601 9.00068 16.5208 9.00068C16.3905 9.00068 15.7746 9.18413 15.4504 9.31953C15.2746 9.39291 15.059 9.47135 14.9712 9.49385C14.6224 9.58312 13.5666 10.1426 13.1326 10.468C12.741 10.7617 12.0563 11.3821 11.7641 11.7079C11.3638 12.1542 10.9231 12.7712 10.7219 13.167C10.2127 14.1685 9.89205 15.1132 9.83288 15.7863C9.81672 15.97 9.78311 16.326 9.75815 16.5774C9.73319 16.8288 9.71278 17.0899 9.71278 17.1575C9.71278 17.2252 9.73319 17.4863 9.75815 17.7377C9.78311 17.989 9.81672 18.345 9.83288 18.5287C9.91605 19.4749 10.466 20.8649 11.1473 21.8513C11.8673 22.8936 12.92 23.811 14.1649 24.4812C14.4593 24.6397 15.277 24.9836 15.585 25.0785C16.0739 25.2291 16.3888 25.3144 16.4556 25.3144C16.4904 25.3144 16.681 25.3619 16.8792 25.4199C17.1234 25.4914 17.3186 25.5256 17.4847 25.526C17.6195 25.5263 17.8545 25.5577 18.0071 25.5957C18.2457 25.6551 18.4097 25.6649 19.1816 25.6654C19.9665 25.6659 20.1122 25.6572 20.3457 25.5957C20.4973 25.5557 20.7262 25.5254 20.8756 25.5254C21.0462 25.5254 21.2154 25.4998 21.3571 25.4528C21.4772 25.4128 21.7086 25.3512 21.8714 25.3158C22.0341 25.2804 22.2837 25.2169 22.426 25.1746C22.5684 25.1324 22.7764 25.0744 22.8883 25.0458C23.2003 24.9661 24.4609 24.3649 24.7895 24.1391C24.9505 24.0284 25.1835 23.8726 25.3072 23.7929C25.5978 23.6055 26.6106 22.6413 26.9221 22.2556C27.1589 21.9624 27.2897 21.7637 27.6399 21.1657C27.9296 20.6709 28.3434 19.6129 28.3961 19.2319C28.4135 19.1062 28.4489 18.9559 28.4747 18.8979C28.5034 18.8334 28.5344 18.499 28.5545 18.0365C28.5946 17.1137 28.5946 17.1994 28.554 16.2786C28.5295 15.723 28.5044 15.4819 28.4594 15.3688C28.4257 15.2842 28.3981 15.172 28.3981 15.1196C28.3981 14.8802 27.9546 13.7589 27.6328 13.1846C27.142 12.3086 26.8394 11.9215 26.0803 11.1981C25.2777 10.4333 24.4958 9.93534 23.4429 9.5186C23.1074 9.38577 22.7413 9.24658 22.6294 9.20927C22.1995 9.06593 21.2966 8.86001 21.0948 8.8593C21.0134 8.85902 20.7722 8.81736 20.5586 8.76676C20.2043 8.68277 20.0926 8.6737 19.2828 8.66298C18.4216 8.65158 18.38 8.65426 17.8776 8.75362ZM3.82272 9.10654C3.76004 9.12507 3.67684 9.1738 3.63783 9.2148C3.56872 9.28736 3.56635 9.42659 3.54764 14.5507C3.53 19.3817 3.52335 19.8235 3.46607 19.9527C3.43179 20.03 3.40298 20.1427 3.40209 20.2031C3.39976 20.3594 3.31667 20.5643 3.13688 20.8569C2.93401 21.1872 2.68097 21.4242 2.39316 21.5537C2.167 21.6554 2.14851 21.6578 1.58851 21.6563C1.18607 21.6552 0.971293 21.6397 0.86742 21.6041C0.61197 21.5166 0.450039 21.5482 0.362474 21.7026C0.338068 21.7457 0.30501 21.9233 0.289035 22.0974C0.27306 22.2714 0.241258 22.5562 0.218368 22.7302C0.195479 22.9043 0.164049 23.4738 0.148555 23.9959C0.126552 24.7375 0.107395 24.976 0.0610237 25.0859C0.0283714 25.1632 0.000931434 25.3108 4.39436e-05 25.4138C-0.00235968 25.6892 0.0925298 25.7644 0.608568 25.8962L1.01533 26H2.38355H3.75176L4.19551 25.8994C4.77042 25.769 5.39499 25.5775 5.67466 25.4457C6.278 25.1614 6.66273 24.9115 6.9593 24.6112C7.42072 24.1441 7.77542 23.6719 8.00547 23.2187C8.20608 22.8234 8.42835 22.19 8.42983 22.0095C8.4302 21.9611 8.46359 21.8213 8.50401 21.6987C8.54443 21.5761 8.5779 21.3783 8.57838 21.2592C8.5789 21.1401 8.59627 20.9726 8.61702 20.887C8.63776 20.8014 8.68728 20.5266 8.72707 20.2763C8.79633 19.8403 8.79936 19.6029 8.79936 14.6026C8.79936 10.1078 8.79189 9.37023 8.74563 9.28515C8.66154 9.13052 8.50494 9.08924 8.04148 9.09954C7.81765 9.1045 7.54301 9.10802 7.43115 9.10728C7.1713 9.10563 5.28457 9.10865 5.06451 9.11108C4.97299 9.11209 4.68178 9.1039 4.41738 9.0929C4.14773 9.08165 3.88662 9.08766 3.82272 9.10654ZM20.0727 13.0816C20.7832 13.2435 20.9648 13.304 21.4002 13.5231C21.9366 13.7932 22.1829 13.9967 22.5822 14.4998C22.9001 14.9004 23.0428 15.1716 23.2355 15.7418C23.338 16.0451 23.369 16.1954 23.369 16.39C23.369 16.5381 23.4004 16.7496 23.4446 16.8994L23.5202 17.1555L23.4446 17.4581C23.403 17.6246 23.369 17.8517 23.369 17.9628C23.369 18.2081 23.1963 18.7778 22.9988 19.1843C22.559 20.0893 21.7437 20.7964 20.8377 21.0583C20.1399 21.26 19.7867 21.3153 19.1904 21.3159C18.7006 21.3164 18.5526 21.3027 18.1735 21.2217C17.3751 21.0511 16.92 20.8604 16.4461 20.4978C15.9692 20.1329 15.5381 19.6079 15.3345 19.144C15.1617 18.7501 15.0118 18.2924 15.0108 18.1554C15.0103 18.0804 14.9775 17.8844 14.9378 17.7201C14.8982 17.5557 14.8658 17.3184 14.8658 17.1927C14.8658 17.067 14.8982 16.8297 14.9378 16.6653C14.9775 16.5009 15.0103 16.3021 15.0108 16.2234C15.012 16.0488 15.0835 15.8134 15.2823 15.3293C15.515 14.7627 15.6408 14.5826 16.1171 14.1335C16.4994 13.7731 16.593 13.7051 16.9717 13.5135C17.401 13.2962 17.7898 13.1501 17.9425 13.1486C17.9882 13.1482 18.142 13.118 18.2844 13.0815C18.6727 12.982 19.6358 12.982 20.0727 13.0816Z" fill="#9D9D9D"/>
</svg>
