<svg width="170" height="17" viewBox="0 0 170 17" fill="none" xmlns="http://www.w3.org/2000/svg">
<path fill-rule="evenodd" clip-rule="evenodd" d="M21.7031 0.140004C20.8475 0.357348 20.7991 0.441985 21.3981 0.674531C22.0272 0.918581 22.1098 1.59321 22.1098 6.48366C22.1098 9.52648 21.9146 12.5368 21.6759 13.1729C21.0313 14.8919 19.7064 16.1339 18.2168 16.4166C16.3596 16.7683 15.2652 16.3118 14.3567 14.8064C13.6736 13.6749 13.5727 12.7045 13.5715 7.26265C13.5699 1.74728 13.6532 0.968295 14.2815 0.598522C14.8362 0.2723 14.5556 0.176981 13.0119 0.16712C11.4589 0.157671 11.1226 0.26737 11.4576 0.674942C11.7041 0.974869 11.9399 4.0107 12.0156 7.85675C12.1453 14.4592 12.1563 14.5283 13.2384 15.6203C14.6447 17.0394 18.0505 17.4421 20.0061 16.4203C22.455 15.1409 22.7198 14.246 22.7198 7.24457C22.7198 2.43835 22.8483 0.866402 23.2623 0.607972C24.052 0.114531 23.0211 -0.194846 21.7031 0.140004ZM0.149947 0.560723C0.660717 0.889821 0.746522 2.16595 0.676983 8.39867C0.621676 13.3577 0.435427 16.0361 0.119042 16.4215C-0.285181 16.9133 0.380932 17 4.57364 17C9.42432 17 9.50281 16.9852 9.47109 16.0756C9.4536 15.5673 9.34665 15.3824 9.234 15.6647C9.09411 16.0148 8.00426 16.1783 5.80949 16.1783H2.58993V8.72531C2.58993 2.10925 2.66964 1.21111 3.30159 0.72671C3.92094 0.251757 3.7233 0.179857 1.7766 0.174105C0.199967 0.169175 -0.279896 0.283394 0.149947 0.560723ZM26.7738 0.711097C27.4749 1.22878 27.5099 1.77235 27.2793 8.55275C27.1219 13.1712 26.8568 16.0505 26.5542 16.419C26.1472 16.9141 26.8035 17 31.0068 17C35.8575 17 35.936 16.9852 35.9042 16.0756C35.8868 15.5673 35.7798 15.3824 35.6672 15.6647C35.5273 16.0148 34.4374 16.1783 32.2426 16.1783H29.0231V8.72531C29.0231 2.10925 29.1028 1.21111 29.7347 0.72671C30.3545 0.251347 30.1609 0.179446 28.2337 0.167942C26.2748 0.156438 26.1073 0.218478 26.7738 0.711097ZM44.0965 1.69551C43.1246 5.33778 38.7472 15.5866 37.8733 16.2662L36.953 16.9819L38.5276 16.991C39.7415 16.9979 40.0063 16.8821 39.6817 16.4864C39.3812 16.1195 39.6236 15.1224 40.5313 12.9941L41.8017 10.0154H44.9086H48.0155L48.7878 12.7887C49.2123 14.3138 49.5161 15.8858 49.4628 16.281C49.3843 16.862 49.6771 17 50.9878 17C52.7483 17 52.9121 16.8361 52.0358 15.9507C51.2469 15.1536 46.7845 1.50488 47.0684 0.757524C47.2424 0.299828 46.9614 0.154795 45.9025 0.154795C44.6349 0.154795 44.4702 0.295308 44.0965 1.69551ZM52.7751 0.722601C52.4758 1.51104 52.8869 2.20909 53.6502 2.20909C54.4819 2.20909 54.3761 2.88947 53.3892 3.88662C52.9231 4.35747 52.6641 4.86611 52.8137 5.01649C52.963 5.16727 53.5372 4.76011 54.0898 4.11177C55.3952 2.57927 55.3066 0.426372 53.9296 0.228749C53.3896 0.151097 52.915 0.354061 52.7751 0.722601ZM60.2398 0.797788C59.6274 1.13346 58.8458 1.95641 58.5025 2.62693C57.2224 5.12824 58.9019 7.69159 63.0816 9.61564C64.9189 10.4616 65.7399 11.0951 66.0433 11.9008C66.6602 13.5402 66.0185 15.0324 64.3337 15.8775C63.0767 16.5082 62.677 16.5353 61.3057 16.083C60.3797 15.7777 59.5603 15.1795 59.3248 14.6376C58.7384 13.2879 58.3029 13.5069 58.3029 15.1511C58.3029 15.942 58.4859 16.5891 58.7095 16.5891C58.9332 16.5891 59.1162 16.3829 59.1162 16.131C59.1162 15.8496 59.5029 15.9289 60.1186 16.3365C60.6697 16.7013 61.8685 17 62.7819 17C65.9705 17 67.6561 15.32 67.6561 12.1416C67.6561 9.93857 66.7473 8.91718 63.3272 7.27703C59.8576 5.61305 58.8897 4.50784 59.4944 2.90056C59.9035 1.81425 61.7851 0.565653 63.0129 0.565653C64.2483 0.565653 66.4353 2.22141 66.4484 3.16721C66.4581 3.86855 66.5346 3.92689 66.8078 3.44166C67.271 2.61913 66.868 -0.138558 66.3963 0.626871C66.119 1.07717 65.8994 1.08498 65.2341 0.668368C64.1353 -0.0198201 61.6119 0.0455062 60.2398 0.797788ZM85.309 1.2181C82.6645 2.95069 81.7792 4.63151 81.5828 8.29308C81.4351 11.0434 81.5405 11.6925 82.3928 13.2969C83.5595 15.4921 85.1626 16.5329 87.8775 16.8578C91.8181 17.3291 93.2292 15.5879 92.7754 10.8141C92.6298 9.28407 92.718 8.78283 93.1324 8.78283C93.435 8.78283 93.6826 8.59794 93.6826 8.37197C93.6826 8.146 92.8591 7.96111 91.8526 7.96111C90.8462 7.96111 90.0227 8.146 90.0227 8.37197C90.0227 8.59794 90.2972 8.78283 90.6327 8.78283C91.1272 8.78283 91.2426 9.44595 91.2426 12.2854C91.2426 15.7276 91.2235 15.7954 90.1243 16.2202C88.7022 16.7699 86.2277 16.0793 84.9324 14.7707C82.8902 12.7073 82.621 6.15497 84.4632 3.35949C84.9544 2.61378 86.03 1.67004 86.8527 1.26247C88.117 0.635499 88.6103 0.592359 90.0442 0.982264C91.1337 1.2789 91.8132 1.72592 91.9441 2.23251C92.2394 3.37305 92.8693 2.781 92.8693 1.36313C92.8693 0.201633 92.2776 -0.311941 91.9799 0.591127C91.8783 0.899271 91.5013 0.899271 90.6993 0.591127C88.8413 -0.122535 87.0349 0.0874141 85.309 1.2181ZM101.24 1.28466C100.682 3.74241 95.973 15.1922 95.2572 15.8332C94.2089 16.7728 94.2979 17 95.716 17C96.3869 17 96.9359 16.8151 96.9359 16.5891C96.9359 16.3632 96.7688 16.1783 96.5647 16.1783C96.3605 16.1783 96.7721 14.7945 97.4797 13.1034L98.7659 10.029L101.854 10.022L104.942 10.0154L105.944 13.0968C106.495 14.7916 106.799 16.1783 106.618 16.1783C106.437 16.1783 106.289 16.3632 106.289 16.5891C106.289 16.8151 107.113 17 108.119 17C109.126 17 109.949 16.8151 109.949 16.5891C109.949 16.3632 109.691 16.1783 109.375 16.1783C108.524 16.1783 103.705 1.44119 104.314 0.700826C104.674 0.262029 104.441 0.154795 103.13 0.154795C101.683 0.154795 101.468 0.282983 101.24 1.28466ZM111.677 0.598522C112.314 0.973225 112.389 1.80768 112.389 8.51577C112.389 13.7998 112.245 16.1594 111.901 16.507C111.522 16.8903 111.86 16.9971 113.426 16.9869C115.187 16.9753 115.35 16.9055 114.727 16.4281C114.152 15.9868 114.016 15.2411 114.016 12.5381V9.19369L115.541 9.20231C117.041 9.21094 117.102 9.27586 119.242 13.1055C121.372 16.9174 121.45 17 122.902 16.991C124.365 16.9819 124.374 16.9717 123.536 16.272C122.61 15.4975 121.675 14.1536 119.967 11.1424L118.858 9.18793L119.792 8.8272C122.207 7.89414 123.195 4.61918 121.761 2.30153C121.303 1.56157 120.459 0.775602 119.886 0.555382C118.431 -0.00338566 110.723 0.0372891 111.677 0.598522ZM126.216 0.505257C126.216 0.764509 126.399 0.976512 126.622 0.976512C126.879 0.976512 127.029 3.78391 127.029 8.5774C127.029 13.3709 126.879 16.1783 126.622 16.1783C126.399 16.1783 126.216 16.3632 126.216 16.5891C126.216 17.1693 131.269 17.1039 133.271 16.4975C136.528 15.5119 139.225 11.8314 139.225 8.37197C139.225 5.45158 137.462 2.3837 135.066 1.13141C133.523 0.325712 126.216 -0.191559 126.216 0.505257ZM141.573 0.668368C141.798 0.951039 142.115 4.47456 142.277 8.49892C142.553 15.3475 142.523 15.8533 141.815 16.3952C141.151 16.903 141.667 16.9753 146.041 16.9869L151.022 17L150.975 15.8701C150.946 15.175 150.856 15.0168 150.742 15.4593C150.585 16.0678 150.06 16.1783 147.333 16.1783H144.109V12.2751V8.37197H146.264C147.45 8.37197 148.639 8.59383 148.908 8.865C149.287 9.24833 149.396 9.06591 149.396 8.04328C149.396 7.32017 149.213 6.72853 148.989 6.72853C148.765 6.72853 148.582 6.91342 148.582 7.13939C148.582 7.36536 147.576 7.55025 146.346 7.55025H144.109V4.05795V0.565653H147.013C149.301 0.565653 150.03 0.718082 150.456 1.28466C150.956 1.95066 150.997 1.93546 151.009 1.07923C151.022 0.170818 150.938 0.154795 146.093 0.154795C142.201 0.154795 141.249 0.262851 141.573 0.668368ZM154.601 0.647825C155.288 1.34218 155.288 15.8126 154.601 16.507C154.221 16.8903 154.454 17 155.646 17C157.041 17 157.122 16.9412 156.541 16.3545C156.012 15.82 155.903 14.5632 155.91 9.0618L155.916 2.41452L157.568 5.29053C159.879 9.31571 164.99 16.9996 165.357 17C165.525 17 165.662 13.4038 165.662 9.0088C165.662 1.83151 165.735 0.974869 166.374 0.598522C166.949 0.259975 166.794 0.177392 165.56 0.16712C164.722 0.160547 164.035 0.339681 164.035 0.565653C164.035 0.791626 164.218 0.976512 164.442 0.976512C164.695 0.976512 164.846 3.26623 164.842 7.03668L164.836 13.0968L162.206 9.05399C160.76 6.83084 158.983 3.91867 158.256 2.58297C157.036 0.342557 156.825 0.154795 155.524 0.154795C154.426 0.154795 154.221 0.264494 154.601 0.647825ZM119.228 1.6799C120.734 2.81634 121.159 4.55509 120.387 6.42244C119.885 7.6353 119.457 7.99809 118.082 8.37197C117.154 8.62465 115.904 8.7742 115.307 8.70435L114.219 8.5774L114.102 4.5177L113.985 0.458008L116.064 0.660151C117.233 0.773548 118.618 1.22015 119.228 1.6799ZM132.164 1.17455C135.393 2.14294 137.196 4.74244 137.196 8.42743C137.196 12.7267 134.642 15.7954 130.587 16.3669L128.656 16.6397V8.8765C128.656 4.60686 128.778 0.99007 128.927 0.839696C129.325 0.437055 129.907 0.497451 132.164 1.17455ZM169.39 1.33642C168.943 1.62238 168.949 1.72345 169.423 1.90711C169.752 2.03488 170 1.88287 170 1.55377C170 1.23617 169.985 0.979388 169.966 0.982675C169.948 0.986373 169.688 1.14538 169.39 1.33642ZM46.3608 5.2782C46.9781 7.19239 47.3766 8.86582 47.2465 8.99688C47.1168 9.12795 45.9305 9.17972 44.6105 9.11192L42.2104 8.98826L43.5877 5.39324C44.3454 3.41619 45.0269 1.79823 45.1022 1.79823C45.1774 1.79823 45.7439 3.36442 46.3608 5.2782ZM103.467 5.36284C104.724 9.05153 104.662 9.19369 101.816 9.19369C100.474 9.19369 99.3759 9.01496 99.3759 8.7968C99.3759 8.57863 99.6394 7.79266 99.9615 7.05065C100.284 6.30864 100.863 4.80859 101.249 3.71735C102.044 1.46954 102.174 1.56609 103.467 5.36284Z" fill="#9D9D9D"/>
</svg>
