<svg width="125" height="30" viewBox="0 0 125 30" fill="none" xmlns="http://www.w3.org/2000/svg">
<g clip-path="url(#clip0)">
<path fill-rule="evenodd" clip-rule="evenodd" d="M2.44123 1.17374C4.09359 1.96628 8.6022 6.78385 16.3911 16.0786L27.8997 29.8125L28.1062 25.285L28.3128 20.7568L19.7364 10.4156L11.1599 0.0736939L5.57996 0.0381868L0 0.00200983L2.44123 1.17374ZM24.7429 1.17374C26.1114 1.83498 29.6623 5.25906 32.9057 9.04423L38.6454 15.7437L38.6083 20.0983C38.561 25.78 37.9772 27.611 35.8909 28.6246C34.422 29.3388 35.2228 29.4534 41.501 29.4253C46.4378 29.4032 48.328 29.2002 47.3005 28.8028C44.895 27.8717 44.2909 25.9857 44.2909 19.3995V13.2535L38.8853 6.65857L33.4798 0.0636447L27.8997 0.0328272L22.3198 0.00200983L24.7429 1.17374ZM47.6039 0.690713C49.3519 1.36602 49.6993 3.77714 48.4032 6.2412C47.9799 7.0458 48.6363 6.56746 49.8611 5.178C53.5878 0.95132 58.2665 -0.549353 60.6325 1.72243C61.5469 2.60139 61.7261 4.73583 61.7178 14.6188C61.7115 21.1334 61.4674 26.8246 61.1744 27.2667C60.8823 27.7089 59.8666 28.3681 58.9188 28.732C57.6138 29.2317 58.9766 29.4004 64.5182 29.4253C70.862 29.4534 71.6083 29.3443 70.0981 28.6112L68.3544 27.7645L68.1661 13.8819L67.9771 0L57.0061 0.0422064C49.7321 0.0703441 46.5633 0.289416 47.6039 0.690713ZM73.1539 0.692722C76.0388 1.52278 77.4052 2.91894 89.1712 17.0527L99.7417 29.7509L99.9482 25.2475L100.155 20.7442L91.5991 10.3721L83.043 0L77.0933 0.0576151C72.6022 0.101161 71.6368 0.256588 73.1539 0.692722ZM93.6253 1.21126C94.9687 1.89929 100.141 7.50806 106.419 15.0845C112.215 22.0793 117.4 28.2442 117.94 28.7835C118.789 29.631 118.922 29.1291 118.919 25.0988L118.914 20.4333L110.425 10.2166L101.936 0L96.6539 0.0281377L91.3718 0.0562752L93.6253 1.21126ZM114.406 0.935241C116.584 1.84637 118.188 4.32046 118.274 6.89841C118.309 7.94218 118.618 7.60252 119.329 5.73874C120.553 2.5277 122.068 0.836759 124.052 0.463601C124.875 0.308844 122.567 0.153417 118.923 0.11724C112.869 0.0582851 112.479 0.128629 114.406 0.935241ZM77.4275 10.0317C76.7669 12.0315 73.6645 14.0655 71.2247 14.0983C69.2793 14.1244 69.4168 14.247 72.5394 15.2707C75.2751 16.1671 76.2899 16.9194 77.2462 18.7584L78.466 21.1033L78.4667 14.9062C78.4682 8.67645 78.2358 7.58644 77.4275 10.0317ZM6.3737 23.5264C5.87778 26.0642 3.69463 28.464 1.39499 28.9978C0.627745 29.176 2.9818 29.3456 6.62619 29.3738C12.8681 29.422 13.1227 29.3709 11.0211 28.4926C9.2432 27.7505 8.59103 26.9076 7.81473 24.3505L6.83963 21.1394L6.3737 23.5264Z" fill="black"/>
</g>
<defs>
<clipPath id="clip0">
<rect width="124.219" height="29.8125" fill="white"/>
</clipPath>
</defs>
</svg>
